<svg xmlns="http://www.w3.org/2000/svg" width="12" height="12" viewBox="0 0 12 12">
    <path d="M4.277 0h5.579a.95.95 0 0 1 .948.949v8.004a.95.95 0 0 1-.948.948.332.332 0 0 1 0-.663.285.285 0 0 0 .285-.285V.949a.285.285 0 0 0-.285-.285H4.277a.285.285 0 0 0-.285.285.332.332 0 0 1-.663 0A.95.95 0 0 1 4.277 0zM2.144 2.099h5.579a.952.952 0 0 1 .948.948v8.004a.95.95 0 0 1-.948.949H2.144a.95.95 0 0 1-.948-.949V3.047a.95.95 0 0 1 .948-.948zm5.576 9.235a.285.285 0 0 0 .285-.285V3.047a.285.285 0 0 0-.285-.285H2.142a.285.285 0 0 0-.285.285v8.002a.285.285 0 0 0 .285.285z"/>
</svg>