<svg xmlns="http://www.w3.org/2000/svg" width="12" height="12" viewBox="0 0 12 12">
    <path d="M1.922 3.572v6.924a1.55 1.55 0 0 0 .412 1.07A1.384 1.384 0 0 0 3.34 12h5.317a1.384 1.384 0 0 0 1.004-.434 1.55 1.55 0 0 0 .412-1.07V3.572a1.074 1.074 0 0 0-.275-2.11h-1.44V1.11A1.104 1.104 0 0 0 7.246 0H4.749a1.104 1.104 0 0 0-1.112 1.11v.351h-1.44a1.074 1.074 0 0 0-.275 2.111zm6.734 7.866H3.339a.89.89 0 0 1-.855-.941v-6.9H9.51v6.9a.89.89 0 0 1-.854.94zM4.199 1.11a.541.541 0 0 1 .55-.548h2.496a.541.541 0 0 1 .55.548v.351H4.2zm-2.001.913h7.599a.506.506 0 1 1 0 1.012h-7.6a.506.506 0 0 1 0-1.012zm1.86 2.606a.281.281 0 1 1 .562 0V9.94a.281.281 0 0 1-.562 0zm3.316 0a.281.281 0 0 1 .562 0V9.94a.281.281 0 0 1-.562 0zm-1.658 0a.281.281 0 0 1 .562 0V9.94a.281.281 0 0 1-.562 0z"/>
</svg>